<svg width="61" height="20" viewBox="0 0 61 20" fill="none" xmlns="http://www.w3.org/2000/svg">
<path opacity="0.5" d="M1.0879 2.04768L0.372758 3.36622L0.480981 3.42492L0.597326 3.46519L1.0879 2.04768ZM2.11757 2.40403L2.60814 0.986516L2.11757 2.40403ZM5.66819 4.01151L5.24706 5.45119L5.66819 4.01151ZM6.22047 4.17307L6.6416 2.7334L6.22047 4.17307ZM6.77276 4.33462L6.35163 5.77429L6.77276 4.33462ZM7.82072 4.7621L7.1116 6.08389L7.82072 4.7621ZM8.3164 5.02802L9.02553 3.70623L8.3164 5.02802ZM9.72649 5.96767L10.773 4.89307L9.72649 5.96767ZM10.1452 6.37547L9.09868 7.45006L10.1452 6.37547ZM11.4823 7.44979L10.7924 8.78176L11.4823 7.44979ZM12.4814 7.96725L13.1712 6.63528L12.4814 7.96725ZM15.7637 10.1744L16.4337 8.83241L15.7637 10.1744ZM16.2672 10.4258L15.5971 11.7679L16.2672 10.4258ZM17.1805 11.1016L16.1014 12.1435L17.1805 11.1016ZM17.5902 11.526L18.6693 10.4841L17.5902 11.526ZM18 11.9504L16.9209 12.9923L18 11.9504ZM18.9627 12.535L18.5453 13.9757L18.9627 12.535ZM20.0688 12.8554L20.4862 11.4146L20.0688 12.8554ZM22.3245 13.4157L21.9815 14.8759L22.3245 13.4157ZM23.2596 14.0513L22.0489 14.937L23.2596 14.0513ZM23.627 14.5537L24.8377 13.668L23.627 14.5537ZM23.9945 15.056L25.2051 14.1703L23.9945 15.056ZM24.8998 15.7465L24.4043 17.1623L24.8998 15.7465ZM25.4376 15.9347L24.9421 17.3505L25.4376 15.9347ZM25.9754 16.123L26.4709 14.7072L25.9754 16.123ZM27.1592 16.3001L27.185 17.7999L27.1592 16.3001ZM28.451 16.2779L28.4253 14.7781L28.451 16.2779ZM29.5889 16.8606L28.4338 17.8175L29.5889 16.8606ZM30.0809 17.4544L31.236 16.4975L30.0809 17.4544ZM30.5728 18.0482L29.4177 19.0052L30.5728 18.0482ZM31.3879 18.058L32.7004 18.7841L31.3879 18.058ZM32.0342 16.8899L30.7216 16.1637L32.0342 16.8899ZM32.9139 16.1522L33.3129 17.5981L32.9139 16.1522ZM33.4705 15.9986L33.0714 14.5526L33.4705 15.9986ZM35.1667 15.5864L35.4324 17.0627L35.1667 15.5864ZM35.7497 15.4815L35.4839 14.0052L35.7497 15.4815ZM36.3326 15.3765L36.5984 16.8528L36.3326 15.3765ZM37.3139 14.826L36.1955 13.8264L37.3139 14.826ZM38.1104 13.9349L39.2288 14.9345L38.1104 13.9349ZM39.1227 13.4417L39.0068 11.9462L39.1227 13.4417ZM39.7368 13.3941L39.8527 14.8897L39.7368 13.3941ZM40.3509 13.3466L40.4668 14.8421L40.3509 13.3466ZM41.3326 12.7969L42.5429 13.683L41.3326 12.7969ZM41.7002 12.2948L42.9105 13.1809L41.7002 12.2948ZM42.0678 11.7927L40.8575 10.9066L42.0678 11.7927ZM43.0172 11.1835L42.7457 9.70831L43.0172 11.1835ZM43.599 11.0764L43.8705 12.5517L43.599 11.0764ZM44.1808 10.9693L44.4524 12.4446L44.1808 10.9693ZM45.1505 10.3976L46.3021 11.3588L45.1505 10.3976ZM45.9263 9.46821L44.7748 8.50699L45.9263 9.46821ZM46.8128 8.74298L46.118 7.41356L46.8128 8.74298ZM48.772 7.63595L47.9101 6.40828L48.772 7.63595ZM49.2354 7.31059L48.3735 6.08292L49.2354 7.31059ZM49.6989 6.98522L50.5607 8.21289L49.6989 6.98522ZM50.7204 6.5091L50.3293 5.061L50.7204 6.5091ZM51.8367 6.20758L52.2279 7.65568L51.8367 6.20758ZM52.909 5.82498L52.2924 4.45756L52.909 5.82498ZM53.4232 5.59314L54.0398 6.96056L53.4232 5.59314ZM53.9374 5.3613L54.5539 6.72872L53.9374 5.3613ZM54.9763 4.91721L54.4139 3.52664L54.9763 4.91721ZM56.0259 4.4927L55.4635 3.10213L56.0259 4.4927ZM56.9077 3.75893L55.67 2.91154L56.9077 3.75893ZM57.2648 3.23741L58.5025 4.0848L57.2648 3.23741ZM57.6218 2.71589L56.3841 1.8685L57.6218 2.71589ZM58.9894 2.09719L58.9091 0.599343L58.8774 0.601042L58.8458 0.604077L58.9894 2.09719ZM59.9121 2.04768L59.9925 3.54552L60.3301 3.52741L60.6272 3.36622L59.9121 2.04768ZM1 2L0.284855 3.31855L0.372758 3.36622L1.0879 2.04768L1.80305 0.729129L1.71514 0.681452L1 2ZM1.0879 2.04768L0.597326 3.46519L1.62699 3.82154L2.11757 2.40403L2.60814 0.986516L1.57848 0.630167L1.0879 2.04768ZM2.11757 2.40403L1.62699 3.82154C2.29255 4.05187 2.70101 4.22783 2.91303 4.34517L3.6394 3.03277L4.36576 1.72037C3.92156 1.47452 3.31547 1.23131 2.60814 0.986516L2.11757 2.40403ZM3.6394 3.03277L2.91303 4.34517L3.4052 4.61757L4.13156 3.30517L4.85793 1.99277L4.36576 1.72037L3.6394 3.03277ZM4.13156 3.30517L3.4052 4.61757L3.89737 4.88997L4.62373 3.57757L5.3501 2.26517L4.85793 1.99277L4.13156 3.30517ZM4.62373 3.57757L3.89737 4.88997C4.32443 5.12633 4.77519 5.31316 5.24706 5.45119L5.66819 4.01151L6.08931 2.57184C5.8248 2.49447 5.57926 2.392 5.3501 2.26517L4.62373 3.57757ZM5.66819 4.01151L5.24706 5.45119L5.79935 5.61274L6.22047 4.17307L6.6416 2.7334L6.08931 2.57184L5.66819 4.01151ZM6.22047 4.17307L5.79935 5.61274L6.35163 5.77429L6.77276 4.33462L7.19389 2.89495L6.6416 2.7334L6.22047 4.17307ZM6.77276 4.33462L6.35163 5.77429C6.6223 5.85346 6.87489 5.9569 7.1116 6.08389L7.82072 4.7621L8.52985 3.4403C8.10566 3.21273 7.6596 3.03118 7.19389 2.89495L6.77276 4.33462ZM7.82072 4.7621L7.1116 6.08389L7.60728 6.34982L8.3164 5.02802L9.02553 3.70623L8.52985 3.4403L7.82072 4.7621ZM8.3164 5.02802L7.60728 6.34982L8.10296 6.61574L8.81208 5.29395L9.52121 3.97215L9.02553 3.70623L8.3164 5.02802ZM8.81208 5.29395L8.10296 6.61574C8.30519 6.72423 8.49723 6.86431 8.67995 7.04226L9.72649 5.96767L10.773 4.89307C10.3974 4.52729 9.97988 4.21822 9.52121 3.97215L8.81208 5.29395ZM9.72649 5.96767L8.67995 7.04226L9.09868 7.45006L10.1452 6.37547L11.1918 5.30087L10.773 4.89307L9.72649 5.96767ZM10.1452 6.37547L9.09868 7.45006L9.51741 7.85786L10.564 6.78326L11.6105 5.70867L11.1918 5.30087L10.1452 6.37547ZM10.564 6.78326L9.51741 7.85786C9.89804 8.22855 10.3235 8.53887 10.7924 8.78176L11.4823 7.44979L12.1721 6.11782C11.975 6.01573 11.7882 5.88171 11.6105 5.70867L10.564 6.78326ZM11.4823 7.44979L10.7924 8.78176L11.292 9.04049L11.9818 7.70852L12.6717 6.37655L12.1721 6.11782L11.4823 7.44979ZM11.9818 7.70852L11.292 9.04049L11.7916 9.29922L12.4814 7.96725L13.1712 6.63528L12.6717 6.37655L11.9818 7.70852ZM12.4814 7.96725L11.7916 9.29922C12.0318 9.4236 12.2603 9.57345 12.4778 9.7506L13.4249 8.58738L14.372 7.42415C13.9977 7.11944 13.5972 6.85587 13.1712 6.63528L12.4814 7.96725ZM13.4249 8.58738L12.4778 9.7506L12.9217 10.112L13.8688 8.94878L14.8158 7.78555L14.372 7.42415L13.4249 8.58738ZM13.8688 8.94878L12.9217 10.112L13.3656 10.4734L14.3127 9.31018L15.2597 8.14696L14.8158 7.78555L13.8688 8.94878ZM14.3127 9.31018L13.3656 10.4734C13.7456 10.7827 14.1541 11.0473 14.5901 11.265L15.2601 9.923L15.9302 8.58099C15.6948 8.46345 15.4717 8.31949 15.2597 8.14696L14.3127 9.31018ZM15.2601 9.923L14.5901 11.265L15.0936 11.5164L15.7637 10.1744L16.4337 8.83241L15.9302 8.58099L15.2601 9.923ZM15.7637 10.1744L15.0936 11.5164L15.5971 11.7679L16.2672 10.4258L16.9373 9.08383L16.4337 8.83241L15.7637 10.1744ZM16.2672 10.4258L15.5971 11.7679C15.7732 11.8558 15.9408 11.9772 16.1014 12.1435L17.1805 11.1016L18.2596 10.0597C17.8739 9.66024 17.4326 9.33114 16.9373 9.08383L16.2672 10.4258ZM17.1805 11.1016L16.1014 12.1435L16.5111 12.5679L17.5902 11.526L18.6693 10.4841L18.2596 10.0597L17.1805 11.1016ZM17.5902 11.526L16.5111 12.5679L16.9209 12.9923L18 11.9504L19.0791 10.9085L18.6693 10.4841L17.5902 11.526ZM18 11.9504L16.9209 12.9923C17.3713 13.4588 17.9187 13.7942 18.5453 13.9757L18.9627 12.535L19.3801 11.0942C19.2695 11.0622 19.175 11.0078 19.0791 10.9085L18 11.9504ZM18.9627 12.535L18.5453 13.9757L19.0983 14.1359L19.5157 12.6952L19.9331 11.2544L19.3801 11.0942L18.9627 12.535ZM19.5157 12.6952L19.0983 14.1359L19.6514 14.2962L20.0688 12.8554L20.4862 11.4146L19.9331 11.2544L19.5157 12.6952ZM20.0688 12.8554L19.6514 14.2962C20.0449 14.4102 20.4433 14.5145 20.8463 14.6092L21.1894 13.149L21.5324 11.6887C21.1787 11.6056 20.8299 11.5142 20.4862 11.4146L20.0688 12.8554ZM21.1894 13.149L20.8463 14.6092L21.4139 14.7426L21.7569 13.2823L22.1 11.8221L21.5324 11.6887L21.1894 13.149ZM21.7569 13.2823L21.4139 14.7426L21.9815 14.8759L22.3245 13.4157L22.6676 11.9554L22.1 11.8221L21.7569 13.2823ZM22.3245 13.4157L21.9815 14.8759C21.9911 14.8782 21.9955 14.8801 21.9964 14.8804C21.9973 14.8808 21.9977 14.881 21.9988 14.8817C21.9992 14.882 22.0175 14.894 22.0489 14.937L23.2596 14.0513L24.4702 13.1657C24.0293 12.563 23.4191 12.132 22.6676 11.9554L22.3245 13.4157ZM23.2596 14.0513L22.0489 14.937L22.4164 15.4393L23.627 14.5537L24.8377 13.668L24.4702 13.1657L23.2596 14.0513ZM23.627 14.5537L22.4164 15.4393L22.7838 15.9416L23.9945 15.056L25.2051 14.1703L24.8377 13.668L23.627 14.5537ZM23.9945 15.056L22.7838 15.9416C23.1908 16.4978 23.7327 16.9273 24.4043 17.1623L24.8998 15.7465L25.3953 14.3307C25.3498 14.3148 25.2882 14.2839 25.2051 14.1703L23.9945 15.056ZM24.8998 15.7465L24.4043 17.1623L24.9421 17.3505L25.4376 15.9347L25.9331 14.5189L25.3953 14.3307L24.8998 15.7465ZM25.4376 15.9347L24.9421 17.3505L25.4799 17.5388L25.9754 16.123L26.4709 14.7072L25.9331 14.5189L25.4376 15.9347ZM25.9754 16.123L25.4799 17.5388C26.0267 17.7301 26.6005 17.8099 27.185 17.7999L27.1592 16.3001L27.1334 14.8003C26.8566 14.8051 26.6412 14.7668 26.4709 14.7072L25.9754 16.123ZM27.1592 16.3001L27.185 17.7999L27.8309 17.7888L27.8051 16.289L27.7793 14.7892L27.1334 14.8003L27.1592 16.3001ZM27.8051 16.289L27.8309 17.7888L28.4768 17.7776L28.451 16.2779L28.4253 14.7781L27.7793 14.7892L27.8051 16.289ZM28.451 16.2779L28.4768 17.7776C28.4668 17.7778 28.4492 17.7768 28.4272 17.7717C28.4051 17.7666 28.387 17.7594 28.3748 17.7531C28.3499 17.7404 28.3735 17.7447 28.4338 17.8175L29.5889 16.8606L30.744 15.9036C30.188 15.2325 29.4014 14.7613 28.4253 14.7781L28.451 16.2779ZM29.5889 16.8606L28.4338 17.8175L28.9258 18.4113L30.0809 17.4544L31.236 16.4975L30.744 15.9036L29.5889 16.8606ZM30.0809 17.4544L28.9258 18.4113L29.4177 19.0052L30.5728 18.0482L31.7279 17.0913L31.236 16.4975L30.0809 17.4544ZM30.5728 18.0482L29.4177 19.0052C29.6335 19.2656 30.1647 19.8374 31.0046 19.8475C31.9857 19.8592 32.5061 19.1353 32.7004 18.7841L31.3879 18.058L30.0754 17.3318C30.0793 17.3248 30.1378 17.2168 30.284 17.1009C30.4521 16.9676 30.7152 16.8438 31.0405 16.8477C31.3425 16.8513 31.5501 16.9634 31.6394 17.0228C31.7257 17.0803 31.753 17.1215 31.7279 17.0913L30.5728 18.0482ZM31.3879 18.058L32.7004 18.7841L33.0236 18.2001L31.711 17.4739L30.3985 16.7478L30.0754 17.3318L31.3879 18.058ZM31.711 17.4739L33.0236 18.2001L33.3467 17.616L32.0342 16.8899L30.7216 16.1637L30.3985 16.7478L31.711 17.4739ZM32.0342 16.8899L33.3467 17.616C33.3632 17.5862 33.3754 17.5695 33.3812 17.5623C33.3868 17.5553 33.3866 17.5568 33.3795 17.5628C33.372 17.569 33.3609 17.577 33.3467 17.5844C33.3326 17.5918 33.3205 17.596 33.3129 17.5981L32.9139 16.1522L32.5148 14.7062C31.6936 14.9329 31.0993 15.4812 30.7216 16.1637L32.0342 16.8899ZM32.9139 16.1522L33.3129 17.5981L33.8695 17.4445L33.4705 15.9986L33.0714 14.5526L32.5148 14.7062L32.9139 16.1522ZM33.4705 15.9986L33.8695 17.4445L34.4261 17.2909L34.0271 15.845L33.628 14.399L33.0714 14.5526L33.4705 15.9986ZM34.0271 15.845L34.4261 17.2909C34.7521 17.2009 35.0875 17.1248 35.4324 17.0627L35.1667 15.5864L34.9009 14.1101C34.4685 14.188 34.0442 14.2842 33.628 14.399L34.0271 15.845ZM35.1667 15.5864L35.4324 17.0627L36.0154 16.9578L35.7497 15.4815L35.4839 14.0052L34.9009 14.1101L35.1667 15.5864ZM35.7497 15.4815L36.0154 16.9578L36.5984 16.8528L36.3326 15.3765L36.0669 13.9003L35.4839 14.0052L35.7497 15.4815ZM36.3326 15.3765L36.5984 16.8528C37.3196 16.723 37.9458 16.3699 38.4323 15.8256L37.3139 14.826L36.1955 13.8264C36.1509 13.8763 36.123 13.8902 36.0669 13.9003L36.3326 15.3765ZM37.3139 14.826L38.4323 15.8256L38.8305 15.3801L37.7121 14.3805L36.5937 13.3809L36.1955 13.8264L37.3139 14.826ZM37.7121 14.3805L38.8305 15.3801L39.2288 14.9345L38.1104 13.9349L36.992 12.9353L36.5937 13.3809L37.7121 14.3805ZM38.1104 13.9349L39.2288 14.9345C39.2355 14.927 39.2376 14.9259 39.2346 14.9282C39.2314 14.9306 39.2261 14.9341 39.2195 14.9373C39.213 14.9405 39.2092 14.9415 39.2101 14.9412C39.2113 14.9409 39.2202 14.9387 39.2386 14.9373L39.1227 13.4417L39.0068 11.9462C38.225 12.0068 37.5239 12.3402 36.992 12.9353L38.1104 13.9349ZM39.1227 13.4417L39.2386 14.9373L39.8527 14.8897L39.7368 13.3941L39.6209 11.8986L39.0068 11.9462L39.1227 13.4417ZM39.7368 13.3941L39.8527 14.8897L40.4668 14.8421L40.3509 13.3466L40.235 11.851L39.6209 11.8986L39.7368 13.3941ZM40.3509 13.3466L40.4668 14.8421C41.3176 14.7761 42.0424 14.3665 42.5429 13.683L41.3326 12.7969L40.1223 11.9108C40.1167 11.9185 40.1176 11.9157 40.1268 11.9074C40.1364 11.8987 40.1512 11.8874 40.1705 11.8765C40.1899 11.8657 40.2081 11.8586 40.2224 11.8544C40.2362 11.8504 40.2414 11.8505 40.235 11.851L40.3509 13.3466ZM41.3326 12.7969L42.5429 13.683L42.9105 13.1809L41.7002 12.2948L40.4899 11.4087L40.1223 11.9108L41.3326 12.7969ZM41.7002 12.2948L42.9105 13.1809L43.2781 12.6788L42.0678 11.7927L40.8575 10.9066L40.4899 11.4087L41.7002 12.2948ZM42.0678 11.7927L43.2781 12.6788C43.291 12.6611 43.2996 12.6524 43.3025 12.6497C43.3052 12.6471 43.304 12.6486 43.299 12.6518C43.2939 12.6551 43.2885 12.6578 43.2843 12.6594C43.2802 12.661 43.281 12.6602 43.2887 12.6587L43.0172 11.1835L42.7457 9.70831C41.9601 9.8529 41.3158 10.2805 40.8575 10.9066L42.0678 11.7927ZM43.0172 11.1835L43.2887 12.6587L43.8705 12.5517L43.599 11.0764L43.3275 9.60121L42.7457 9.70831L43.0172 11.1835ZM43.599 11.0764L43.8705 12.5517L44.4524 12.4446L44.1808 10.9693L43.9093 9.49412L43.3275 9.60121L43.599 11.0764ZM44.1808 10.9693L44.4524 12.4446C45.1932 12.3082 45.8248 11.9306 46.3021 11.3588L45.1505 10.3976L43.999 9.43634C43.9714 9.46942 43.9553 9.47899 43.9523 9.48074C43.9498 9.48224 43.9392 9.48861 43.9093 9.49412L44.1808 10.9693ZM45.1505 10.3976L46.3021 11.3588L46.69 10.8941L45.5384 9.93289L44.3869 8.97167L43.999 9.43634L45.1505 10.3976ZM45.5384 9.93289L46.69 10.8941L47.0778 10.4294L45.9263 9.46821L44.7748 8.50699L44.3869 8.97167L45.5384 9.93289ZM45.9263 9.46821L47.0778 10.4294C47.2196 10.2596 47.3631 10.1479 47.5075 10.0724L46.8128 8.74298L46.118 7.41356C45.5977 7.6855 45.1502 8.05723 44.7748 8.50699L45.9263 9.46821ZM46.8128 8.74298L47.5075 10.0724L48.0061 9.81183L47.3114 8.48242L46.6166 7.15301L46.118 7.41356L46.8128 8.74298ZM47.3114 8.48242L48.0061 9.81183L48.5047 9.55128L47.8099 8.22186L47.1152 6.89245L46.6166 7.15301L47.3114 8.48242ZM47.8099 8.22186L48.5047 9.55128C48.8953 9.34713 49.2718 9.11779 49.6339 8.86361L48.772 7.63595L47.9101 6.40828C47.6542 6.58792 47.3894 6.74919 47.1152 6.89245L47.8099 8.22186ZM48.772 7.63595L49.6339 8.86361L50.0973 8.53825L49.2354 7.31059L48.3735 6.08292L47.9101 6.40828L48.772 7.63595ZM49.2354 7.31059L50.0973 8.53825L50.5607 8.21289L49.6989 6.98522L48.837 5.75756L48.3735 6.08292L49.2354 7.31059ZM49.6989 6.98522L50.5607 8.21289C50.7238 8.09842 50.9044 8.01316 51.1116 7.9572L50.7204 6.5091L50.3293 5.061C49.7923 5.20606 49.2918 5.43822 48.837 5.75756L49.6989 6.98522ZM50.7204 6.5091L51.1116 7.9572L51.6697 7.80644L51.2786 6.35834L50.8874 4.91024L50.3293 5.061L50.7204 6.5091ZM51.2786 6.35834L51.6697 7.80644L52.2279 7.65568L51.8367 6.20758L51.4456 4.75948L50.8874 4.91024L51.2786 6.35834ZM51.8367 6.20758L52.2279 7.65568C52.6752 7.53485 53.1082 7.38063 53.5256 7.1924L52.909 5.82498L52.2924 4.45756C52.0243 4.57845 51.7424 4.67929 51.4456 4.75948L51.8367 6.20758ZM52.909 5.82498L53.5256 7.1924L54.0398 6.96056L53.4232 5.59314L52.8066 4.22572L52.2924 4.45756L52.909 5.82498ZM53.4232 5.59314L54.0398 6.96056L54.5539 6.72872L53.9374 5.3613L53.3208 3.99388L52.8066 4.22572L53.4232 5.59314ZM53.9374 5.3613L54.5539 6.72872C54.8787 6.58226 55.207 6.44194 55.5387 6.30777L54.9763 4.91721L54.4139 3.52664C54.0459 3.67547 53.6815 3.83122 53.3208 3.99388L53.9374 5.3613ZM54.9763 4.91721L55.5387 6.30777L56.0635 6.09552L55.5011 4.70495L54.9387 3.31438L54.4139 3.52664L54.9763 4.91721ZM55.5011 4.70495L56.0635 6.09552L56.5883 5.88327L56.0259 4.4927L55.4635 3.10213L54.9387 3.31438L55.5011 4.70495ZM56.0259 4.4927L56.5883 5.88327C57.2431 5.61844 57.7608 5.16814 58.1454 4.60632L56.9077 3.75893L55.67 2.91154C55.5786 3.04507 55.5084 3.08395 55.4635 3.10213L56.0259 4.4927ZM56.9077 3.75893L58.1454 4.60632L58.5025 4.0848L57.2648 3.23741L56.0271 2.39002L55.67 2.91154L56.9077 3.75893ZM57.2648 3.23741L58.5025 4.0848L58.8595 3.56328L57.6218 2.71589L56.3841 1.8685L56.0271 2.39002L57.2648 3.23741ZM57.6218 2.71589L58.8595 3.56328C58.8928 3.5147 58.8927 3.53111 58.8432 3.56387C58.8181 3.58048 58.7847 3.5982 58.7442 3.61263C58.7036 3.6271 58.6637 3.63544 58.6278 3.63889L58.4842 2.14578L58.3406 0.652671C57.4555 0.737795 56.8062 1.25206 56.3841 1.8685L57.6218 2.71589ZM58.4842 2.14578L58.6278 3.63889L59.133 3.5903L58.9894 2.09719L58.8458 0.604077L58.3406 0.652671L58.4842 2.14578ZM58.9894 2.09719L59.0698 3.59503L59.9925 3.54552L59.9121 2.04768L59.8317 0.549831L58.9091 0.599343L58.9894 2.09719ZM59.9121 2.04768L60.6272 3.36622L60.7151 3.31855L60 2L59.2849 0.681452L59.1969 0.729128L59.9121 2.04768Z" fill="#1A191E"/>
</svg>